<svg width="36" height="37" viewBox="0 0 36 37" fill="none" xmlns="http://www.w3.org/2000/svg">
<path d="M36 18.8C36 28.7412 27.9411 36.8 18 36.8C8.05887 36.8 0 28.7412 0 18.8C0 8.85892 8.05887 0.800049 18 0.800049C27.9411 0.800049 36 8.85892 36 18.8ZM1.8 18.8C1.8 27.7471 9.05299 35 18 35C26.947 35 34.2 27.7471 34.2 18.8C34.2 9.85304 26.947 2.60005 18 2.60005C9.05299 2.60005 1.8 9.85304 1.8 18.8Z" fill="#040404"/>
<ellipse cx="18" cy="11.6" rx="7.2" ry="7.2" fill="#040404"/>
<path d="M30 30.5159C30 35.2424 22.2205 35.6 17.7576 35.6C13.2947 35.6 6 35.2424 6 30.5159C6 25.7894 13.2947 22.4 17.7576 22.4C22.2205 22.4 30 25.7894 30 30.5159Z" fill="#040404"/>
</svg>
