<svg width="50" height="50" viewBox="0 0 50 50" fill="none" xmlns="http://www.w3.org/2000/svg">
<path d="M30.125 21.875C29.0204 21.875 28.125 20.9796 28.125 19.875V2C28.125 0.895431 27.2296 0 26.125 0H23.875C22.7704 0 21.875 0.895431 21.875 2V19.875C21.875 20.9796 20.9796 21.875 19.875 21.875H2C0.895431 21.875 0 22.7704 0 23.875V26.125C0 27.2296 0.895431 28.125 2 28.125H19.875C20.9796 28.125 21.875 29.0204 21.875 30.125V48C21.875 49.1046 22.7704 50 23.875 50H26.125C27.2296 50 28.125 49.1046 28.125 48V30.125C28.125 29.0204 29.0204 28.125 30.125 28.125H48C49.1046 28.125 50 27.2296 50 26.125V23.875C50 22.7704 49.1046 21.875 48 21.875H30.125Z" fill="black"/>
</svg>
