<svg width="1400" height="1400" viewBox="0 0 1400 1400" fill="none" xmlns="http://www.w3.org/2000/svg">
<circle cx="84" cy="380" r="72.5" stroke="white" stroke-width="5"/>
<path fill-rule="evenodd" clip-rule="evenodd" d="M1335.04 982.829C1373.58 896.429 1395 800.716 1395 700C1395 316.162 1083.84 5 700 5C457.991 5 244.873 128.695 120.419 316.312C119.094 315.302 117.734 314.335 116.342 313.413C241.703 124.524 456.31 0 700 0C1086.6 0 1400 313.401 1400 700C1400 801.654 1378.33 898.247 1339.36 985.412C1337.94 984.516 1336.5 983.654 1335.04 982.829ZM1228.25 1151.65C1100.79 1300.6 911.417 1395 700 1395C316.162 1395 5 1083.84 5 700C5 610.926 21.7568 525.766 52.29 447.5C50.6943 446.994 49.1217 446.435 47.5743 445.827C16.8569 524.617 0 610.34 0 700C0 1086.6 313.401 1400 700 1400C913.147 1400 1104.04 1304.73 1232.43 1154.46C1231.02 1153.56 1229.62 1152.62 1228.25 1151.65Z" fill="white"/>
<circle cx="1286" cy="1070" r="97.5" stroke="white" stroke-width="5"/>
<path d="M337.5 901C337.5 921.74 320.905 938.5 300.5 938.5C280.095 938.5 263.5 921.74 263.5 901C263.5 880.26 280.095 863.5 300.5 863.5C320.905 863.5 337.5 880.26 337.5 901Z" stroke="white" stroke-width="5"/>
<path fill-rule="evenodd" clip-rule="evenodd" d="M700 1145C945.767 1145 1145 945.767 1145 700C1145 579.749 1097.3 470.638 1019.79 390.555C1020.77 389.15 1021.69 387.699 1022.54 386.207C1101.42 467.269 1150 577.961 1150 700C1150 948.528 948.528 1150 700 1150C538.459 1150 396.799 1064.88 317.424 937.047C318.98 936.403 320.486 935.662 321.935 934.831C400.477 1061.01 540.43 1145 700 1145ZM286.046 863.625C266.01 812.977 255 757.774 255 700C255 454.233 454.233 255 700 255C784.56 255 863.611 278.585 930.933 319.536C932.092 318.27 933.306 317.057 934.574 315.899C866.268 274.095 785.948 250 700 250C451.472 250 250 451.472 250 700C250 758.642 261.217 814.664 281.623 866.037C283.04 865.142 284.517 864.336 286.046 863.625Z" fill="white"/>
<circle cx="976" cy="354" r="54.5" stroke="white" stroke-width="5"/>
</svg>
